<?xml version="1.0" standalone="no"?>
<!DOCTYPE svg PUBLIC "-//W3C//DTD SVG 20010904//EN"
 "http://www.w3.org/TR/2001/REC-SVG-20010904/DTD/svg10.dtd">
<svg version="1.0" xmlns="http://www.w3.org/2000/svg"
 width="1746.000000pt" height="1090.000000pt" viewBox="0 0 1746.000000 1090.000000"
 preserveAspectRatio="xMidYMid meet">

<g transform="translate(0.000000,1090.000000) scale(0.100000,-0.100000)"
fill="#000000" stroke="none">
<path d="M7985 10033 c-247 -22 -575 -85 -855 -164 l-106 -30 -64 30 c-173 77
-349 113 -565 114 -219 1 -389 -40 -574 -139 l-83 -45 -122 60 c-191 96 -396
139 -596 125 -282 -19 -532 -115 -676 -260 -102 -102 -148 -228 -126 -345 11
-58 50 -152 61 -147 3 2 33 17 66 34 87 45 154 59 285 58 311 -3 547 -142 679
-401 l21 -42 0 -1281 c0 -1403 2 -1355 -59 -1500 -52 -125 -156 -256 -257
-326 -30 -20 -54 -38 -54 -40 0 -1 20 -39 44 -85 53 -100 72 -162 86 -277 11
-82 44 -171 72 -188 7 -5 9 -2 5 7 -68 157 -84 239 -68 352 14 99 43 174 95
245 117 158 302 252 546 274 l117 11 7 106 c17 271 26 632 32 1304 4 400 9
727 11 727 16 0 100 -70 148 -122 71 -78 100 -135 124 -241 47 -202 60 -419
68 -1124 l6 -603 45 0 c83 0 178 -63 217 -146 38 -81 53 -334 23 -393 -10 -19
-18 -45 -18 -59 0 -85 -69 -179 -163 -222 l-58 -26 81 -67 c44 -37 82 -67 84
-67 2 0 9 14 17 31 7 19 33 45 66 65 63 41 75 63 98 172 34 171 90 284 197
397 141 151 340 241 576 261 l82 7 0 1522 0 1523 34 30 c58 50 134 73 291 84
208 15 526 4 650 -22 289 -62 539 -197 763 -414 201 -195 338 -387 477 -671
239 -488 365 -994 394 -1586 11 -218 1 -361 -32 -477 -13 -45 -23 -82 -22 -82
1 0 23 7 49 16 35 12 70 15 134 11 82 -4 91 -3 152 27 115 55 257 38 337 -42
17 -18 34 -32 37 -32 3 0 28 14 56 31 l50 31 0 101 c-1 512 -130 1171 -369
1885 l-68 203 31 -7 c58 -12 151 -69 222 -137 127 -120 202 -249 303 -521 138
-370 224 -774 266 -1236 26 -293 20 -267 69 -288 23 -11 58 -33 78 -51 l36
-31 37 21 c20 12 53 27 72 34 33 12 37 18 67 106 35 103 86 189 146 243 41 36
99 66 130 66 10 0 23 13 30 30 15 37 88 105 133 123 67 29 128 30 177 5 76
-39 80 -55 80 -330 l0 -238 120 0 c66 0 120 3 120 8 0 4 -11 42 -25 84 -13 43
-34 144 -45 225 -81 584 -150 907 -274 1278 -283 846 -733 1455 -1376 1862
-543 343 -1131 517 -1940 573 -133 9 -811 11 -905 3z"/>
<path d="M2865 6502 c-22 -11 -52 -33 -67 -49 -28 -29 -28 -29 -110 -22 -93 8
-178 -2 -217 -27 -76 -48 -103 -101 -82 -157 9 -24 14 -26 30 -17 34 18 115
12 144 -10 39 -31 47 -77 47 -259 l0 -163 -35 31 c-87 76 -194 106 -345 98
-181 -11 -292 -52 -395 -148 -97 -91 -154 -215 -170 -374 -12 -127 -17 -144
-46 -188 -16 -25 -52 -60 -79 -77 l-50 -32 58 -38 c75 -48 100 -80 106 -138 3
-26 12 -91 21 -144 37 -244 144 -410 319 -492 96 -46 163 -60 281 -59 141 0
243 37 336 120 l35 32 36 -48 c43 -57 122 -101 181 -101 21 0 60 9 87 21 46
20 49 20 81 4 43 -23 137 -31 182 -16 53 18 87 63 87 116 0 24 -4 47 -10 50
-5 3 -27 1 -49 -6 -52 -15 -93 1 -127 50 -24 35 -24 38 -24 266 0 217 1 232
21 265 25 40 36 50 102 89 l47 28 -60 37 c-40 25 -68 52 -85 80 l-25 43 0 572
c0 618 0 621 -53 656 -40 26 -125 29 -172 7z m-55 -568 c15 -60 23 -691 13
-959 -7 -196 -12 -247 -27 -277 -10 -20 -24 -39 -32 -42 -12 -5 -14 92 -14
682 l0 687 26 -26 c14 -14 29 -43 34 -65z m-334 -242 c70 -36 105 -89 123
-187 15 -81 15 -841 0 -900 -17 -67 -78 -131 -142 -150 -92 -27 -205 12 -259
90 -53 77 -58 122 -58 542 0 391 5 453 40 523 52 102 185 139 296 82z m-558
-179 c-3 -21 -17 -96 -33 -168 -38 -181 -39 -317 -1 -475 34 -139 42 -205 28
-214 -19 -11 -81 133 -114 264 -31 124 -51 163 -90 176 -18 5 -16 9 15 30 38
25 43 38 77 179 30 121 47 172 77 223 29 51 48 45 41 -15z"/>
<path d="M12103 6435 c-39 -17 -78 -73 -94 -137 -10 -38 -16 -47 -28 -42 -9 4
-35 9 -58 12 -37 3 -45 0 -80 -36 -73 -76 -122 -201 -123 -314 l0 -47 -57 0
c-66 1 -108 -13 -141 -44 -46 -43 -69 -115 -51 -165 l10 -29 42 14 c54 18 110
2 141 -40 19 -25 21 -45 24 -176 3 -136 2 -152 -19 -195 -19 -42 -90 -116
-111 -116 -20 0 -4 -17 38 -39 87 -46 90 -56 97 -248 3 -105 11 -190 21 -226
51 -185 172 -305 360 -354 94 -25 264 -22 351 5 195 60 337 210 338 356 1 110
-53 166 -146 152 -74 -11 -82 -22 -82 -113 0 -151 -71 -229 -200 -221 -72 4
-95 19 -126 80 -33 65 -39 161 -39 665 l0 492 201 3 201 3 34 37 c27 30 34 46
34 77 0 75 14 71 -241 71 l-229 0 0 295 c0 328 4 311 -67 280z m-231 -628 c29
-58 41 -301 35 -712 -5 -338 -12 -389 -56 -429 -18 -16 -19 -10 -23 183 -3
194 -4 201 -27 225 -13 14 -32 28 -43 32 -25 8 -23 19 7 32 14 6 34 26 45 44
19 31 20 51 20 356 0 216 3 321 10 317 6 -4 20 -25 32 -48z"/>
<path d="M6266 5981 c-4 -5 -4 -16 -1 -23 9 -23 -33 -67 -69 -74 -22 -4 -64 2
-118 16 -163 44 -394 36 -539 -19 -121 -46 -223 -136 -273 -241 -28 -59 -31
-74 -31 -165 0 -95 2 -104 37 -177 28 -59 58 -99 131 -175 52 -55 98 -109 102
-122 4 -13 4 -42 1 -64 l-7 -42 91 3 c116 4 171 -12 280 -84 148 -97 186 -148
178 -235 -8 -83 -77 -154 -173 -180 -57 -16 -180 -6 -247 20 -77 30 -158 105
-189 173 -29 68 -33 196 -7 244 22 40 9 54 -51 54 -57 0 -100 -25 -141 -81
-25 -34 -30 -52 -30 -96 0 -30 5 -63 11 -74 9 -17 5 -28 -17 -62 -22 -33 -28
-53 -27 -94 0 -53 29 -115 58 -127 20 -7 19 -56 -2 -85 -16 -23 -15 -25 8 -44
40 -33 138 -9 200 50 l26 24 79 -26 c285 -93 641 -25 823 157 74 74 109 141
119 231 24 194 -46 327 -254 484 -107 81 -120 101 -107 170 10 58 10 58 -17
43 -11 -6 -43 -15 -72 -20 -49 -10 -57 -8 -116 21 -72 35 -173 124 -196 173
-56 118 29 225 180 226 128 0 223 -51 269 -145 27 -54 30 -101 13 -175 -2 -12
10 -16 58 -18 59 -3 64 -1 99 32 36 34 37 38 33 86 -4 40 -1 53 14 66 36 33
43 126 13 174 -5 7 -7 39 -6 70 2 65 -20 103 -75 126 -39 16 -51 17 -58 5z
m-810 -559 c54 -111 174 -212 364 -307 211 -106 369 -233 418 -339 30 -63 30
-142 0 -186 -36 -53 -43 -47 -43 38 0 123 -48 194 -205 301 -131 90 -190 115
-272 115 l-68 0 0 29 c0 24 -19 48 -104 131 -125 122 -156 177 -156 274 0 35
5 73 12 85 11 20 13 17 20 -33 5 -30 20 -79 34 -108z"/>
<path d="M15626 5979 c-3 -8 -6 -25 -8 -39 -2 -18 -14 -31 -42 -44 -37 -18
-41 -18 -115 -2 -153 35 -178 38 -301 33 -136 -6 -212 -23 -305 -66 -169 -79
-265 -219 -265 -386 0 -133 58 -246 196 -383 80 -80 91 -103 77 -160 l-10 -37
93 3 c116 5 169 -11 279 -83 166 -107 211 -183 169 -283 -35 -86 -109 -132
-224 -139 -177 -13 -342 88 -386 234 -19 62 -18 153 2 204 14 35 15 42 3 50
-22 14 -87 11 -118 -5 -41 -22 -88 -80 -100 -123 -14 -48 -13 -59 3 -104 11
-32 10 -39 -11 -69 -45 -67 -38 -154 18 -212 33 -36 35 -47 13 -90 -16 -31
-16 -33 6 -50 39 -32 114 -17 185 37 l45 35 73 -25 c159 -53 379 -54 545 -4
165 51 306 158 364 277 31 63 33 72 33 177 -1 148 -21 200 -119 302 -39 42
-99 95 -133 120 -34 24 -74 58 -89 76 -24 28 -26 36 -19 90 6 57 6 58 -15 47
-12 -6 -45 -15 -73 -20 -62 -10 -106 6 -201 74 -114 81 -154 172 -113 255 32
66 78 86 192 86 76 0 98 -4 139 -25 98 -50 141 -113 139 -205 -1 -33 -3 -69
-5 -80 -2 -16 4 -20 37 -26 87 -15 161 46 153 124 -4 33 0 48 19 70 18 23 23
41 23 86 0 34 -6 65 -14 77 -10 13 -13 34 -9 65 9 73 -29 127 -99 144 -19 5
-29 3 -32 -6z m-810 -560 c55 -110 166 -203 368 -308 288 -150 436 -295 436
-429 0 -49 -24 -108 -49 -122 -15 -8 -16 -2 -13 55 3 52 0 73 -20 117 -68 147
-354 332 -485 313 -43 -6 -43 -6 -43 25 0 25 -17 47 -108 138 -128 126 -155
173 -156 273 -1 45 4 72 14 84 14 17 16 14 22 -38 4 -31 19 -79 34 -108z"/>
<path d="M4115 5920 c-94 -24 -153 -51 -228 -102 -172 -117 -268 -255 -308
-444 -11 -52 -27 -110 -35 -130 -16 -38 -85 -110 -115 -119 -28 -9 -23 -17 37
-55 78 -49 92 -73 115 -196 38 -198 100 -327 213 -439 193 -192 507 -252 799
-154 206 68 336 197 337 332 0 65 -23 112 -66 132 -44 21 -103 12 -138 -20
-21 -19 -24 -29 -19 -59 8 -49 -20 -118 -62 -155 -58 -51 -136 -74 -250 -75
-90 -1 -106 2 -157 27 -122 59 -177 161 -181 333 -2 110 3 123 46 124 52 0
832 132 856 145 51 26 62 113 20 151 -14 13 -19 31 -19 73 -1 193 -103 393
-263 514 -88 67 -134 91 -228 117 -96 26 -255 27 -354 0z m222 -181 c15 -5 41
-22 56 -37 57 -54 60 -68 65 -314 l5 -228 -24 -8 c-33 -12 -370 -65 -376 -59
-9 10 -3 417 7 464 12 52 47 118 77 145 44 40 136 58 190 37z m-511 -272 c-60
-276 -68 -395 -36 -542 10 -49 27 -127 37 -172 38 -177 -39 -90 -96 107 -16
58 -33 123 -37 145 -5 27 -18 51 -41 72 l-34 32 31 28 c26 24 35 46 61 148 35
142 54 197 86 249 18 28 28 35 36 27 8 -8 7 -33 -7 -94z m803 48 c22 -43 25
-65 29 -191 l4 -142 -41 -4 -41 -4 0 199 c0 218 5 232 49 142z"/>
<path d="M8797 5921 c-119 -26 -239 -87 -322 -163 -70 -64 -97 -106 -116 -182
-7 -28 -25 -62 -45 -83 -27 -29 -31 -38 -22 -53 18 -29 63 -50 107 -50 32 0
44 -5 57 -25 8 -13 36 -34 60 -45 52 -25 108 -21 149 12 24 19 25 22 11 37
-24 27 -20 31 32 31 57 0 89 20 108 66 18 43 19 41 -21 48 -104 20 -99 177 7
229 48 23 161 33 216 18 57 -16 107 -62 129 -119 15 -38 18 -76 18 -202 l0
-155 -52 -31 c-68 -41 -138 -54 -347 -64 -194 -10 -266 -28 -353 -86 -61 -42
-72 -57 -138 -189 -39 -78 -59 -106 -92 -130 -23 -16 -42 -32 -42 -35 0 -3 20
-18 45 -35 46 -30 71 -67 94 -140 50 -156 190 -279 366 -321 105 -25 271 -24
360 4 69 21 194 100 194 122 0 5 5 10 10 10 6 0 10 -5 10 -12 0 -7 11 -28 25
-48 55 -79 170 -110 262 -70 47 20 53 21 81 6 116 -60 272 -9 272 90 0 60 -9
68 -59 53 -36 -11 -47 -10 -76 4 -20 9 -44 31 -55 49 -18 31 -20 51 -20 272 0
276 4 290 91 342 27 16 49 31 49 34 0 3 -21 16 -47 30 -80 43 -86 58 -94 235
-10 232 -38 322 -128 412 -58 59 -123 95 -221 124 -109 32 -377 37 -503 10z
m573 -444 c16 -78 24 -495 11 -620 -10 -103 -35 -186 -60 -201 -8 -5 -11 118
-11 455 l0 462 24 -22 c15 -14 29 -44 36 -74z m-202 -629 c-3 -295 -7 -312
-81 -371 -30 -25 -45 -30 -91 -30 -68 0 -111 24 -152 85 -50 74 -67 205 -43
333 22 119 64 165 169 185 30 6 84 21 120 34 36 13 69 24 73 25 5 0 7 -117 5
-261z m-585 186 c3 -4 -13 -41 -36 -83 -39 -72 -42 -81 -45 -172 -5 -106 1
-131 55 -247 40 -85 38 -120 -4 -81 -38 36 -87 116 -112 185 -18 48 -30 66
-62 86 l-39 25 40 27 c24 16 42 37 46 54 28 114 123 240 157 206z"/>
<path d="M13471 5920 c-151 -41 -264 -111 -376 -232 -76 -84 -127 -180 -151
-283 -41 -178 -63 -221 -136 -267 -21 -13 -38 -26 -38 -30 0 -4 15 -15 33 -24
47 -24 105 -83 116 -118 6 -17 17 -71 26 -120 55 -304 237 -509 520 -587 109
-30 303 -30 420 0 236 62 392 198 403 351 3 45 0 61 -20 90 -13 19 -36 41 -51
48 -36 17 -97 8 -133 -20 -22 -18 -25 -26 -20 -57 14 -89 -44 -170 -151 -212
-83 -32 -237 -33 -305 -2 -69 32 -131 94 -163 164 -22 50 -28 79 -32 174 l-6
114 34 5 c19 4 218 36 442 71 225 36 414 68 420 71 7 4 22 16 35 27 28 26 30
93 3 128 -12 16 -21 50 -25 99 -12 118 -25 169 -67 258 -71 148 -223 283 -381
340 -102 36 -288 42 -397 12z m267 -207 c69 -55 72 -69 72 -330 l0 -232 -32
-6 c-202 -33 -339 -55 -352 -55 -14 0 -16 20 -16 173 0 259 23 368 90 432 65
62 173 70 238 18z m-569 -316 c-43 -195 -50 -354 -19 -487 46 -205 50 -231 41
-247 -7 -13 -15 -6 -40 38 -32 55 -53 117 -93 274 -20 79 -27 92 -55 110 -18
11 -32 22 -32 25 0 3 14 14 32 25 30 19 35 31 67 155 41 157 63 219 92 255 40
51 42 8 7 -148z m820 126 c19 -41 32 -155 29 -248 l-3 -90 -37 -3 -38 -3 0
195 c0 191 0 196 19 184 11 -7 24 -22 30 -35z"/>
<path d="M7348 5920 c-126 -22 -232 -67 -334 -144 -131 -98 -203 -224 -240
-420 -9 -44 -24 -96 -34 -116 -21 -41 -85 -107 -112 -116 -28 -8 -22 -16 38
-54 30 -19 64 -49 75 -67 11 -17 29 -80 40 -139 36 -188 89 -302 196 -415 80
-85 151 -133 252 -169 111 -41 227 -54 340 -41 229 28 410 130 478 269 65 133
3 269 -113 248 -61 -12 -81 -38 -86 -110 -5 -90 -37 -134 -125 -178 -62 -30
-75 -33 -158 -33 -143 1 -226 49 -277 160 -23 49 -23 56 -26 467 -2 266 1 439
8 475 24 131 97 193 225 193 85 0 148 -27 182 -78 55 -83 32 -191 -49 -231
-24 -11 -54 -21 -67 -21 -18 0 -21 -4 -16 -22 13 -45 42 -73 88 -87 52 -16 56
-26 27 -64 l-21 -26 28 -18 c45 -30 136 -24 202 12 30 16 59 38 65 47 8 13 24
18 54 18 47 0 87 17 115 48 18 20 18 21 -13 49 -30 27 -33 35 -41 118 -12 123
-55 210 -143 293 -140 131 -347 187 -558 152z m-326 -472 c-63 -253 -66 -405
-13 -622 33 -137 36 -162 22 -171 -25 -15 -86 131 -126 300 -20 84 -29 104
-56 128 l-31 29 31 26 c28 24 36 42 61 147 35 147 53 198 87 250 25 38 27 39
36 18 7 -16 4 -45 -11 -105z"/>
<path d="M10462 5915 c-17 -8 -48 -26 -67 -41 -33 -25 -39 -26 -74 -15 -59 17
-169 14 -216 -8 -59 -26 -122 -102 -131 -156 -3 -24 -3 -53 1 -65 6 -18 11
-20 33 -14 15 5 51 9 80 9 46 0 57 -4 77 -27 30 -35 39 -94 33 -217 -4 -71
-10 -107 -26 -137 -22 -43 -78 -98 -118 -116 -32 -15 -30 -21 11 -41 55 -26
114 -85 125 -125 5 -21 10 -136 10 -257 0 -200 -2 -223 -20 -252 -25 -42 -86
-62 -136 -44 -45 16 -54 9 -54 -44 0 -53 34 -98 87 -116 45 -15 136 -7 184 16
34 16 38 16 69 0 19 -10 61 -20 95 -22 49 -4 68 0 106 19 l46 24 44 -20 c69
-30 158 -33 212 -7 47 23 77 67 77 113 0 43 -13 51 -58 38 -57 -18 -109 -5
-149 35 l-33 33 0 392 c0 323 3 403 16 454 32 126 131 289 210 345 52 37 123
37 161 -1 37 -38 39 -118 4 -169 -26 -39 -81 -79 -108 -79 -10 0 -25 -5 -33
-10 -13 -8 -12 -14 5 -46 26 -49 63 -75 108 -77 27 -1 37 -6 37 -19 0 -9 -4
-20 -10 -23 -21 -13 -9 -37 27 -52 31 -12 46 -13 88 -4 56 13 153 64 162 86 3
9 18 15 37 15 38 0 89 30 112 66 18 26 18 27 -14 53 -38 32 -42 48 -46 181 -4
125 -22 181 -76 243 -52 58 -123 89 -222 95 -179 11 -327 -81 -425 -263 l-33
-60 0 110 c0 84 -4 118 -18 145 -30 62 -116 87 -190 55z m-62 -489 c8 -53 11
-180 8 -371 -3 -270 -5 -293 -25 -336 -11 -26 -25 -49 -30 -52 -6 -4 -12 58
-16 161 -7 194 -18 238 -64 261 -18 9 -33 18 -33 21 0 3 13 12 29 22 54 30 63
64 69 257 l5 175 23 -29 c15 -20 26 -53 34 -109z"/>
<path d="M12762 5703 c-16 -54 -61 -104 -123 -138 -51 -28 -61 -30 -192 -33
l-138 -4 3 -461 c2 -354 6 -467 16 -484 16 -28 26 -29 52 -3 18 18 20 32 18
103 -2 90 10 121 68 166 18 14 31 42 45 93 11 40 46 125 77 188 48 99 67 126
133 192 60 59 80 86 89 120 15 59 62 178 72 184 18 11 6 40 -25 60 -17 11 -44
28 -58 37 l-26 17 -11 -37z"/>
<path d="M9787 5689 c-39 -21 -40 -23 -19 -94 3 -11 8 -58 11 -105 6 -83 7
-85 41 -107 19 -13 63 -49 98 -80 60 -53 65 -55 89 -42 38 21 53 60 53 142 l0
74 -54 -5 c-43 -3 -62 0 -88 16 -45 28 -78 89 -86 161 l-7 59 -38 -19z"/>
<path d="M7452 5590 c-29 -12 -52 -67 -52 -122 l0 -43 17 34 c9 19 32 43 50
53 27 16 33 26 33 54 0 36 -8 40 -48 24z"/>
<path d="M7401 5027 c-1 -376 1 -397 52 -430 15 -9 31 -17 37 -17 12 0 14 626
2 632 -18 7 -65 80 -77 120 -12 38 -14 1 -14 -305z"/>
<path d="M10810 4907 c0 -355 1 -367 18 -358 26 14 32 98 32 417 l0 253 -25
28 -24 28 -1 -368z"/>
<path d="M11351 5113 c-30 -18 -57 -34 -61 -35 -4 -2 -13 -82 -19 -178 -56
-835 -204 -1573 -411 -2055 -63 -148 -116 -231 -189 -296 -55 -49 -195 -128
-207 -116 -3 3 10 66 30 139 78 289 219 911 260 1148 23 131 56 356 56 380 0
6 -18 7 -42 4 -24 -3 -76 1 -116 10 -45 9 -81 12 -95 7 -47 -18 -126 -22 -183
-10 -73 14 -78 14 -186 -2 l-87 -13 -5 -41 c-3 -22 -8 -78 -11 -125 -41 -590
-172 -1151 -360 -1535 -232 -475 -557 -757 -1002 -869 -132 -33 -231 -46 -403
-53 -323 -12 -554 66 -762 256 l-58 53 0 1158 0 1157 -92 6 c-119 8 -191 28
-303 82 -167 81 -279 195 -366 370 -48 96 -99 265 -99 325 0 27 -33 80 -44 70
-3 -3 2 -26 11 -50 21 -60 28 -220 13 -293 -20 -96 -75 -194 -154 -272 -57
-56 -163 -131 -207 -147 -5 -2 -13 -187 -19 -413 -17 -647 -31 -815 -80 -995
-30 -106 -86 -214 -140 -270 -43 -44 -107 -87 -116 -78 -2 3 -5 378 -6 834
l-3 829 -130 6 c-71 4 -160 14 -197 24 l-67 17 -53 -26 c-29 -14 -68 -29 -85
-32 l-33 -6 0 -1120 0 -1120 -47 -82 c-113 -191 -281 -304 -513 -342 -168 -28
-307 -12 -421 48 -35 18 -67 34 -70 36 -11 5 -50 -89 -61 -148 -39 -208 109
-397 402 -517 122 -49 204 -68 367 -84 258 -25 430 8 658 129 l89 47 74 -38
c100 -53 211 -92 334 -119 87 -18 134 -22 298 -22 267 0 443 33 618 116 l64
30 141 -46 c167 -55 348 -97 542 -127 116 -18 199 -22 486 -26 433 -6 656 10
989 73 959 181 1731 660 2311 1434 335 447 608 1072 749 1717 17 76 32 148 35
159 5 21 1 22 -148 26 -166 6 -235 22 -352 81 -91 46 -192 152 -243 257 -52
107 -70 199 -73 369 l-2 133 -53 34 c-63 41 -87 72 -94 128 l-5 41 -54 -32z"/>
<path d="M5270 5042 c0 -12 19 -26 26 -19 2 2 -2 10 -11 17 -9 8 -15 8 -15 2z"/>
<path d="M5554 4756 c-4 -9 -4 -37 -1 -61 10 -94 106 -165 222 -165 98 0 105
4 105 61 0 47 -2 50 -47 84 -75 55 -142 84 -210 91 -53 6 -64 4 -69 -10z"/>
</g>
</svg>
